# xmcd
#
# Track frame offsets: 
#        150
#        10685
#        24085
#        36855
#        54810
#        75750
#        96510
#        110410
#        123240
#        139290
#        152530
#        171590
#
# Disc length: 2484 seconds
#
# Revision: 1
# Processed by: cddbd v1.5.2PL0 Copyright (c) Steve Scherf et al.
# Submitted via: ExactAudioCopy v1.0b2
#
DISCID=8609b20c
DTITLE=Frank Sinatra - My Way
DYEAR=2009
DGENRE=Jazz
TTITLE0=Watch What Happens
TTITLE1=Didn't We
TTITLE2=Hallelujah, I Love Her So
TTITLE3=Yesterday
TTITLE4=All My Tomorrows
TTITLE5=My Way
TTITLE6=A Day in the Life of a Fool
TTITLE7=For Once in My Life
TTITLE8=If You Go Away
TTITLE9=Mrs. Robinson
TTITLE10=For Once in My Life (Rehearsal)
TTITLE11=My Way (Live)
EXTD=YEAR: 2009
EXTT0=
EXTT1=
EXTT2=
EXTT3=
EXTT4=
EXTT5=
EXTT6=
EXTT7=
EXTT8=
EXTT9=
EXTT10=
EXTT11=
PLAYORDER=
